<svg width="100" height="94" viewBox="0 0 100 94" fill="none" xmlns="http://www.w3.org/2000/svg">
<path d="M83.3984 0H16.6016C7.43277 0 0 7.15449 0 15.98V77.8696C0 86.6951 7.43277 93.8496 16.6016 93.8496H83.3984C92.5672 93.8496 100 86.6951 100 77.8696V15.98C100 7.15449 92.5672 0 83.3984 0Z" fill="#330000"/>
<path d="M48.4586 56.3211H32.9625L29.8094 65.7485C29.7665 65.9205 29.6626 66.0726 29.5156 66.1787C29.3686 66.2849 29.1878 66.3383 29.0043 66.3298H21.1555C20.7082 66.3298 20.5516 66.0929 20.6859 65.6192L34.1027 28.426C34.2367 28.0387 34.3711 27.5977 34.5051 27.1025C34.6809 26.2407 34.7707 25.3654 34.7734 24.4874C34.7643 24.426 34.7702 24.3634 34.7905 24.3045C34.8109 24.2457 34.8452 24.1922 34.8908 24.1483C34.9363 24.1044 34.9919 24.0713 35.053 24.0517C35.1141 24.032 35.1792 24.0263 35.243 24.0351H45.9094C46.2219 24.0351 46.4008 24.143 46.4461 24.3584L61.6738 65.6838C61.8082 66.1147 61.6738 66.3302 61.2715 66.3298H52.5504C52.4006 66.3458 52.2499 66.3088 52.1265 66.2256C52.0031 66.1424 51.9153 66.0188 51.8797 65.8779L48.4586 56.3211ZM35.3774 48.1852H45.9766L45.8254 47.705L45.5828 46.9448L45.4098 46.4108L45.1336 45.5701L44.5465 43.8003L44.0301 42.2312L42.6891 38.1441C42.3553 37.1281 42.035 36.1081 41.7281 35.0842L41.4828 34.2533L41.1961 33.2708L40.7586 31.748L40.6766 31.4611H40.6098C40.2741 33.011 39.8654 34.5454 39.3848 36.0596L38.3895 39.1413L37.8418 40.8438L37.2891 42.5674C37.1891 42.8787 37.0898 43.1866 36.9902 43.4908L36.6934 44.3925L36.3981 45.2731L36.1043 46.1318L35.8121 46.9692C35.7152 47.2448 35.6184 47.5167 35.5219 47.7851L35.3774 48.1852ZM70.7293 30.8798C70.0451 30.9062 69.3628 30.7934 68.7271 30.5486C68.0913 30.3038 67.5163 29.9326 67.0398 29.4593C66.5646 28.9654 66.1955 28.3859 65.9537 27.7543C65.7119 27.1226 65.6022 26.4512 65.6309 25.7786C65.6065 25.1127 65.7284 24.4494 65.9885 23.832C66.2486 23.2145 66.641 22.6568 67.1402 22.1953C68.1031 21.3056 69.3855 20.8076 70.7203 20.8052L70.8633 20.8067C72.4734 20.8067 73.7371 21.2692 74.6539 22.1949C75.1166 22.6759 75.4763 23.24 75.7122 23.8549C75.9481 24.4699 76.0558 25.1236 76.0289 25.7786C76.057 26.4539 75.9439 27.1277 75.6961 27.7601C75.4484 28.3924 75.0711 28.9704 74.5867 29.4596C74.0977 29.9236 73.5172 30.2887 72.8793 30.5335C72.2415 30.7782 71.5592 30.8976 70.8727 30.8847L70.7293 30.8798ZM66.1004 65.6838V34.8188C66.1004 34.4315 66.2785 34.2375 66.6371 34.2375H74.8887C75.2461 34.2375 75.425 34.4311 75.4254 34.8188V65.6838C75.4254 66.1147 75.2465 66.3302 74.8887 66.3298H66.7043C66.323 66.3298 66.1223 66.1366 66.1023 65.75L66.1004 65.6838Z" fill="#FF9A00"/>
</svg>
