<svg width="100" height="100" viewBox="0 0 100 100" fill="none" xmlns="http://www.w3.org/2000/svg">
<g clip-path="url(#clip0_49_258)">
<path d="M20.7726 0C15.0672 0 10.8452 6.26716 11.0343 13.0637C11.2159 19.5931 10.98 28.0505 9.28365 34.9471C7.58222 41.8637 4.70432 46.2451 0.00390625 46.8078V53.1588C4.70432 53.7216 7.58222 58.1029 9.28365 65.0201C10.98 71.9167 11.2159 80.373 11.0343 86.9029C10.8452 93.6985 15.0672 99.9667 20.7734 99.9667H79.2348C84.9406 99.9667 89.1614 93.6995 88.9723 86.9029C88.7911 80.3735 89.0266 71.9167 90.723 65.0201C92.4256 58.1034 95.2957 53.7211 99.9961 53.1588V46.8078C95.2957 46.2451 92.4256 41.8637 90.7234 34.9471C89.0266 28.0515 88.7911 19.5936 88.9723 13.0637C89.1614 6.26814 84.9406 0 79.2348 0H20.7718H20.7726ZM67.7955 61.5358C67.7955 70.8946 62.2334 76.5701 53.0029 76.5701H37.2893C36.8399 76.57 36.4089 76.3458 36.0911 75.947C35.7734 75.5481 35.5949 75.0072 35.5949 74.4431V25.5235C35.5948 25.2442 35.6386 24.9675 35.7238 24.7094C35.8089 24.4513 35.9338 24.2168 36.0911 24.0192C36.2485 23.8217 36.4354 23.665 36.641 23.558C36.8467 23.4511 37.0671 23.3961 37.2897 23.3961H52.9131C60.6097 23.3961 65.6609 28.6289 65.6609 36.6623C65.6609 42.301 62.2627 47.349 57.9338 48.2328V48.5275C63.8274 49.3387 67.7955 54.4608 67.7955 61.5358ZM51.289 30.1387H42.3299V46.0211H49.8762C55.7093 46.0211 58.9263 43.073 58.9263 37.8034C58.9263 32.8657 56.1601 30.1387 51.2893 30.1387H51.289ZM42.3299 52.323V69.8255H51.619C57.692 69.8255 60.9097 66.7672 60.9097 61.0191C60.9097 55.2701 57.6025 52.3221 51.2284 52.3221H42.3299V52.323Z" fill="#7E13F8"/>
</g>
<defs>
<clipPath id="clip0_49_258">
<rect width="100" height="100" fill="white"/>
</clipPath>
</defs>
</svg>
