<svg width="101" height="100" viewBox="0 0 101 100" fill="none" xmlns="http://www.w3.org/2000/svg">
<path d="M19.1936 85.0031L12.1748 6.25H89.3248L82.2967 84.9906L50.7029 93.75L19.1936 85.0031Z" fill="#1572B6"/>
<path d="M50.75 87.0562L76.2812 79.9781L82.2875 12.6906H50.75V87.0562Z" fill="#33A9DC"/>
<path d="M50.75 41.2219H63.5312L64.4125 31.3313H50.75V21.6719H74.9688L74.7375 24.2625L72.3656 50.8813H50.75V41.2219Z" fill="white"/>
<path d="M50.8094 66.3062L50.7656 66.3187L40.0094 63.4125L39.3219 55.7094H29.625L30.9781 70.875L50.7625 76.3687L50.8094 76.3562V66.3062Z" fill="#EBEBEB"/>
<path d="M62.7093 50.4719L61.5468 63.4062L50.7749 66.3125V76.3625L70.5749 70.875L70.7218 69.2437L72.3999 50.4719H62.7093Z" fill="white"/>
<path d="M50.7843 21.6719V31.3313H27.453L27.2593 29.1594L26.8187 24.2625L26.5874 21.6719H50.7843ZM50.7499 41.2219V50.8813H40.128L39.9343 48.7094L39.4968 43.8125L39.2655 41.2219H50.7499Z" fill="#EBEBEB"/>
</svg>
