<svg width="100" height="100" viewBox="0 0 100 100" fill="none" xmlns="http://www.w3.org/2000/svg">
<path d="M82.2143 32.3789C81.1503 31.9689 80.0772 31.5891 78.9961 31.2398C79.1777 30.4065 79.3449 29.5833 79.4933 28.7745C81.9296 15.4933 80.3369 4.79378 74.8968 1.27098C69.6809 -2.10622 61.1508 1.41527 52.5358 9.83501C51.6868 10.6663 50.8566 11.5215 50.046 12.3999C49.5034 11.8158 48.9512 11.2431 48.3897 10.6819C39.3608 1.67931 30.3108 -2.11499 24.8765 1.41791C19.6653 4.80562 18.1222 14.864 20.3156 27.4508C20.5338 28.6974 20.7802 29.9376 21.0545 31.1701C19.7735 31.5789 18.5374 32.014 17.3544 32.4771C6.76871 36.6218 0.00854492 43.117 0.00854492 49.8543C0.00854492 56.8126 7.26589 63.792 18.2913 68.024C19.1852 68.3657 20.0865 68.6824 20.9944 68.9736C20.6995 70.3011 20.4378 71.6376 20.2094 72.9815C18.1183 85.3499 19.7512 95.1705 24.9484 98.5368C30.3162 102.013 39.3256 98.4403 48.0979 89.8284C48.8093 89.1283 49.5049 88.4083 50.1843 87.6692C51.0621 88.6203 51.9633 89.5438 52.887 90.4385C61.3847 98.6499 69.777 101.966 74.9691 98.5903C80.3318 95.1039 82.0749 84.5539 79.812 71.7183C79.6337 70.7128 79.4339 69.7122 79.2125 68.7175C79.8452 68.5069 80.4662 68.2903 81.0716 68.0648C92.5337 63.8004 99.9914 56.9056 99.9914 49.8543C99.9914 43.0925 93.0129 36.5534 82.2143 32.3789ZM79.7284 63.5122C79.1816 63.7153 78.6208 63.9113 78.049 64.1021C76.7836 59.6034 75.0761 54.8201 72.9862 49.8776C74.9804 45.053 76.6223 40.3306 77.8522 35.8613C78.8751 36.1938 79.8675 36.5442 80.8243 36.914C90.0767 40.4911 95.7202 45.7793 95.7202 49.8543C95.7202 54.1947 89.6252 59.8293 79.7284 63.5122ZM75.6221 72.6499C76.6227 78.3254 76.7653 83.4569 76.1025 87.4688C75.5073 91.0736 74.3098 93.4767 72.8288 94.4394C69.6782 96.4876 62.9399 93.8254 55.6728 86.8026C54.8137 85.9707 53.9754 85.1122 53.1588 84.228C55.9763 80.7679 58.7918 76.7455 61.5398 72.278C66.3733 71.7964 70.9397 71.0087 75.0808 69.9337C75.2803 70.8342 75.4608 71.7398 75.6221 72.6499ZM34.0949 94.0854C31.0165 95.3061 28.5646 95.3411 27.0824 94.3815C23.9287 92.339 22.6175 84.4534 24.4059 73.8762C24.6185 72.6264 24.8619 71.3833 25.1359 70.1486C29.2313 71.1661 33.7645 71.8977 38.6093 72.339C41.376 76.7104 44.2728 80.7284 47.1922 84.2468C46.5718 84.921 45.9367 85.578 45.2875 86.217C41.4081 90.0249 37.5208 92.7267 34.0949 94.0854ZM19.6731 63.4854C14.7978 61.614 10.7715 59.1819 8.01186 56.528C5.53181 54.1433 4.28008 51.7754 4.28008 49.8543C4.28008 45.7657 9.70766 40.5508 18.7604 37.0065C19.859 36.5767 21.0088 36.171 22.202 35.7903C23.4533 40.3604 25.0945 45.139 27.075 49.971C25.0687 54.8745 23.4041 59.7293 22.1407 64.3534C21.312 64.0868 20.4892 63.7974 19.6731 63.4854ZM24.5075 26.5293C22.6285 15.7455 23.8763 7.61089 27.0168 5.56922C30.3615 3.39466 37.7579 6.4951 45.5538 14.2688C46.0622 14.7768 46.5623 15.2952 47.054 15.8236C44.149 19.3267 41.2788 23.3148 38.5367 27.6604C33.8344 28.1499 29.3332 28.9359 25.1948 29.989C24.9399 28.8426 24.7107 27.6891 24.5075 26.5297V26.5293ZM67.6356 38.489C66.6581 36.5929 65.6444 34.7207 64.5951 32.8736C67.7852 33.3267 70.8417 33.928 73.7119 34.6631C72.8503 37.7648 71.7763 41.0074 70.5121 44.3319C69.588 42.363 68.629 40.4149 67.6356 38.489ZM50.048 19.2517C52.018 21.6486 53.9911 24.3245 55.9317 27.228C51.9949 27.0192 48.0515 27.0183 44.1146 27.2254C46.0573 24.3486 48.0472 21.6762 50.048 19.2517ZM32.3475 38.5219C31.3666 40.4323 30.4255 42.3682 29.525 44.328C28.2814 41.0153 27.2171 37.7578 26.3482 34.6122C29.2008 33.8955 32.2428 33.3096 35.4126 32.8648C34.3516 34.7232 33.3297 36.6092 32.3475 38.5214V38.5219ZM35.5036 67.185C32.2288 66.7745 29.141 66.2188 26.2892 65.5214C27.1718 62.3197 28.2595 58.9929 29.53 55.6091C30.4341 57.5704 31.3791 59.5075 32.3643 61.4188C33.3774 63.3837 34.4265 65.3083 35.5036 67.185ZM50.1659 80.7947C48.1413 78.342 46.1221 75.6284 44.1502 72.71C46.0647 72.7942 48.0163 72.8372 50 72.8372C52.0379 72.8372 54.0524 72.7859 56.0352 72.6868C54.0883 75.6578 52.1226 78.3754 50.1659 80.7947ZM70.5523 55.4363C71.8888 58.8574 73.0151 62.1666 73.9095 65.3135C71.0108 66.0565 67.8809 66.6547 64.583 67.099C65.6398 65.2177 66.6631 63.3129 67.6524 61.3859C68.6582 59.4271 69.6251 57.4434 70.5523 55.4363ZM63.9526 58.9894C62.4381 61.9439 60.8385 64.8424 59.1562 67.6802C56.1089 67.9226 53.0549 68.043 50 68.0412C46.8884 68.0412 43.8619 67.9324 40.9476 67.7201C39.2214 64.8889 37.5912 61.9853 36.0606 59.0157H36.0609C34.5374 56.0618 33.1144 53.044 31.7949 49.9688C33.111 46.8929 34.5298 43.8736 36.0481 40.9175L36.0477 40.9179C37.5654 37.961 39.1825 35.0699 40.8957 32.2508C43.869 31.9982 46.9181 31.8666 49.9996 31.8666H50C53.0955 31.8666 56.1485 31.9995 59.121 32.2539C60.8169 35.0687 62.4237 37.9499 63.9386 40.892C65.4619 43.8417 66.8994 46.8462 68.2488 49.9008C66.9133 52.9866 65.4803 56.0181 63.9526 58.9894ZM72.7636 5.42624C76.1115 7.59466 77.4136 16.339 75.3101 27.8061C75.1757 28.5376 75.0249 29.2828 74.8609 30.0385C70.7124 28.9631 66.2081 28.1635 61.4921 27.6666C58.7449 23.2732 55.8982 19.2789 53.0404 15.821C53.7894 15.0102 54.5562 14.2205 55.34 13.4526C62.7216 6.23896 69.6204 3.39071 72.7636 5.42624ZM50 39.828C54.9307 39.828 58.9281 44.317 58.9281 49.8543C58.9281 55.3916 54.9307 59.8806 50 59.8806C45.0692 59.8806 41.0718 55.3916 41.0718 49.8543C41.0718 44.317 45.0692 39.828 50 39.828Z" fill="#00D8FF"/>
</svg>
