<svg width="84" height="50" viewBox="0 0 84 50" fill="none" xmlns="http://www.w3.org/2000/svg">
<path d="M41.5599 0C30.4778 0 23.5511 5.54123 20.7807 16.6234C24.9365 11.0821 29.7849 9.00422 35.3261 10.3896C38.4875 11.1799 40.7472 13.4737 43.2485 16.0123C47.3232 20.1484 52.0388 24.9351 62.3391 24.9351C73.4213 24.9351 80.3479 19.3938 83.1183 8.31169C78.9625 13.8529 74.1141 15.9308 68.5729 14.5455C65.4115 13.7552 63.1518 11.4614 60.6505 8.92273C56.5758 4.78669 51.8602 0 41.5599 0ZM20.7807 24.9351C9.69854 24.9351 2.77192 30.4763 0.00146484 41.5584C4.15731 36.0172 9.00569 33.9393 14.5469 35.3247C17.7083 36.1149 19.968 38.4088 22.4693 40.9474C26.544 45.0834 31.2596 49.8701 41.5599 49.8701C52.642 49.8701 59.5687 44.3289 62.3391 33.2468C58.1833 38.788 53.3349 40.8659 47.7937 39.4805C44.6323 38.6903 42.3726 36.3964 39.8713 33.8578C35.7966 29.7218 31.081 24.9351 20.7807 24.9351Z" fill="url(#paint0_linear_49_287)"/>
<defs>
<linearGradient id="paint0_linear_49_287" x1="-2.30752" y1="15.9584" x2="69.4775" y2="57.3484" gradientUnits="userSpaceOnUse">
<stop stop-color="#2298BD"/>
<stop offset="1" stop-color="#0ED7B5"/>
</linearGradient>
</defs>
</svg>
